<svg xmlns="http://www.w3.org/2000/svg" xmlns:xlink="http://www.w3.org/1999/xlink" viewBox="0,0,256,256" width="48px" height="48px" fill-rule="nonzero"><g fill="#1b4b66" fill-rule="nonzero" stroke="none" stroke-width="1" stroke-linecap="butt" stroke-linejoin="miter" stroke-miterlimit="10" stroke-dasharray="" stroke-dashoffset="0" font-family="none" font-weight="none" font-size="none" text-anchor="none" style="mix-blend-mode: normal"><g transform="scale(5.33333,5.33333)"><path d="M42.164,17.126l-11.29,-11.291c-3.781,-3.781 -9.967,-3.781 -13.748,0l-11.29,11.291c-3.781,3.781 -3.781,9.967 0,13.748l11.291,11.291c3.781,3.781 9.967,3.781 13.748,0l11.291,-11.291c3.779,-3.781 3.779,-9.967 -0.002,-13.748zM24,31c-3.866,0 -7,-3.134 -7,-7c0,-3.866 3.134,-7 7,-7c3.866,0 7,3.134 7,7c0,3.866 -3.134,7 -7,7z"></path></g></g></svg>