<svg width="204" height="34" viewBox="0 0 204 34" fill="none" xmlns="http://www.w3.org/2000/svg">
<g clip-path="url(#clip0_169_427)">
<path fill-rule="evenodd" clip-rule="evenodd" d="M14.0078 18.3508L10.2686 2.90968C10.1653 2.48725 9.97618 2.09074 9.7132 1.74491C9.45014 1.39908 9.11888 1.11136 8.74 0.899728C8.36112 0.688096 7.94278 0.557096 7.51115 0.514913C7.07952 0.47273 6.64384 0.520269 6.23135 0.654562L2.18496 1.97385C1.77213 2.10755 1.39122 2.32524 1.06607 2.6133C0.740921 2.90134 0.478512 3.25357 0.29525 3.64795C0.111987 4.04234 0.0118105 4.47039 0.000982683 4.90536C-0.00984522 5.34033 0.0689083 5.77287 0.23232 6.17593L6.26321 20.873C6.56439 21.6122 7.13303 22.21 7.85516 22.5466C8.5773 22.8831 9.39955 22.9334 10.1571 22.6875L11.9208 22.1124C12.6781 21.8656 13.3142 21.3407 13.7013 20.6429C14.0884 19.9451 14.1979 19.1262 14.0078 18.3508ZM14.5699 33.2898C13.7569 33.5534 12.8842 33.5695 12.0622 33.336C11.24 33.1026 10.5053 32.6301 9.95068 31.9782C9.39609 31.3264 9.04641 30.5243 8.94598 29.6733C8.84546 28.8223 8.99862 27.9605 9.38597 27.1967C9.77341 26.433 10.3778 25.8014 11.1229 25.3818C11.8678 24.9623 12.7201 24.7735 13.572 24.8393C14.4239 24.9051 15.2372 25.2225 15.9095 25.7516C16.5816 26.2806 17.0824 26.9975 17.3486 27.8118C17.5261 28.3544 17.5949 28.9269 17.5512 29.4962C17.5076 30.0656 17.3521 30.6207 17.0939 31.1297C16.8358 31.6387 16.4798 32.0916 16.0467 32.4622C15.6136 32.8329 15.1117 33.1141 14.5699 33.2898ZM23.5525 29.3251C29.1009 27.5173 33.5797 21.1012 31.3518 14.2217C29.1214 7.34686 21.7387 4.79275 16.1903 6.60049C15.5674 6.80297 15.0442 7.23457 14.7258 7.80839C14.4074 8.38221 14.3176 9.05566 14.4743 9.6933L15.0341 12.0054C15.1197 12.3525 15.2755 12.6783 15.4919 12.9624C15.7084 13.2464 15.9809 13.4828 16.2924 13.6567C16.6039 13.8305 16.9477 13.9382 17.3025 13.973C17.6573 14.0078 18.0154 13.9689 18.3546 13.8588L18.5822 13.7858C19.1312 13.5901 19.7136 13.5067 20.2953 13.5406C20.8769 13.5745 21.4459 13.7249 21.9687 13.9831C22.4913 14.2412 22.9572 14.6017 23.3386 15.0434C23.72 15.4851 24.0094 15.999 24.1895 16.5547C24.3695 17.1105 24.4367 17.6968 24.3871 18.279C24.3375 18.8612 24.172 19.4276 23.9005 19.9446C23.629 20.4616 23.2569 20.9187 22.8063 21.2892C22.3556 21.6595 21.8355 21.9356 21.2767 22.101L21.0491 22.174C20.7106 22.285 20.3985 22.4649 20.1323 22.7023C19.8662 22.9398 19.6517 23.2297 19.5022 23.5539C19.3528 23.8781 19.2715 24.2298 19.2635 24.5869C19.2556 24.9441 19.3212 25.2991 19.4561 25.6297L20.3505 27.8346C20.5977 28.4427 21.0654 28.9345 21.6595 29.211C22.2534 29.4875 22.9298 29.5283 23.5525 29.3251Z" fill="#E31E52"/>
<path fill-rule="evenodd" clip-rule="evenodd" d="M48.5842 11.6516C51.5336 10.0676 55.1681 10.3574 57.6305 12.8248C59.9928 15.1986 60.0406 18.611 60.0406 19.9531C60.0406 23.7534 58.2904 26.9558 54.9587 27.9418C50.5231 29.3045 43.7299 28.1016 43.7299 28.1016C43.5792 28.0848 43.4399 28.0128 43.3387 27.8996C43.2376 27.7864 43.1815 27.6397 43.1814 27.4876V6.48861C43.1814 6.35603 43.2338 6.22889 43.3274 6.13514C43.4208 6.0414 43.5476 5.98874 43.6798 5.98874H47.84C47.9722 5.98874 48.0989 6.0414 48.1924 6.13514C48.2859 6.22889 48.3384 6.35603 48.3384 6.48861V11.5101C48.3385 11.5389 48.3462 11.5671 48.3606 11.592C48.3751 11.6169 48.3958 11.6375 48.4206 11.6519C48.4456 11.6661 48.4737 11.6737 48.5024 11.6736C48.5311 11.6736 48.5593 11.666 48.5842 11.6516ZM48.5409 23.6873C49.8199 24.0479 52.3734 24.1848 53.8344 22.6624V22.667C54.8358 21.69 56.0079 18.5311 53.6546 16.171C52.6624 15.153 51.0375 14.6029 48.7798 15.5478C48.6462 15.6119 48.5336 15.713 48.4553 15.8392C48.3771 15.9654 48.3365 16.1114 48.3384 16.26V23.3997C48.3363 23.4631 48.3551 23.5256 48.3916 23.5775C48.4281 23.6294 48.4806 23.6679 48.5409 23.6873ZM120.622 6.50233V28.2226C120.623 28.3108 120.659 28.3952 120.72 28.4576C120.783 28.52 120.867 28.5553 120.955 28.5559H125.477C125.565 28.5559 125.65 28.5208 125.713 28.4584C125.775 28.396 125.81 28.3112 125.811 28.2226V6.50233C125.811 6.36976 125.759 6.24262 125.666 6.14887C125.572 6.05513 125.445 6.00247 125.313 6.00247H121.117C120.985 6.00367 120.859 6.05687 120.767 6.15048C120.674 6.24409 120.622 6.37055 120.622 6.50233ZM80.2179 24.7144C79.9636 24.6786 79.7225 24.5789 79.517 24.4245C79.2894 24.2237 79.1687 23.8699 79.1437 23.2947V11.2773C79.1431 11.1619 79.0971 11.0513 79.0157 10.9697C78.9343 10.8881 78.8241 10.8419 78.709 10.8414H74.4441C74.3289 10.8414 74.2183 10.8873 74.1368 10.9691C74.0553 11.0508 74.0095 11.1617 74.0095 11.2773V22.425C74.0117 22.4417 74.0117 22.4586 74.0095 22.4753C73.5998 23.9269 71.9021 24.3652 70.5708 24.1392C68.6796 23.8197 67.8898 22.2265 67.9581 20.3913C67.9581 20.3275 67.9832 11.8982 67.9877 11.2773C67.9877 11.1617 67.9419 11.0508 67.8604 10.9691C67.7788 10.8873 67.6683 10.8414 67.553 10.8414H63.2972C63.183 10.8414 63.0733 10.8867 62.9923 10.9676C62.9113 11.0484 62.8655 11.1581 62.8648 11.2728C62.8648 13.0987 62.8512 21.8772 62.8512 21.8772C62.8512 23.2467 63.2791 27.6839 67.7259 28.4965C69.8174 28.8777 72.3049 28.2043 74.3144 26.771C74.3329 26.7571 74.354 26.7471 74.3764 26.7417C74.3989 26.7362 74.4222 26.7354 74.4449 26.7392C74.4677 26.7431 74.4894 26.7515 74.5089 26.764C74.5284 26.7765 74.545 26.7928 74.558 26.812C75.0421 27.4817 75.7308 27.9746 76.5197 28.2158C77.6932 28.6028 79.2874 28.4467 79.7689 28.3995L79.7809 28.3984C79.8565 28.39 79.927 28.356 79.9808 28.3021C80.0346 28.2482 80.0684 28.1774 80.0768 28.1016L80.4842 25.0979C80.4994 25.0117 80.48 24.9228 80.43 24.8509C80.3801 24.7791 80.3039 24.73 80.2179 24.7144ZM165.54 18.1567C165.388 16.2007 164.784 14.1601 163.546 12.6787L163.513 12.6387L163.481 12.6006C162.972 11.9852 161.61 10.3398 157.416 10.3529C155.697 10.3529 153.977 10.4693 152.265 10.6336C151.287 10.7227 150.309 10.8231 149.332 10.9258C148.7 10.9924 148.701 11.3771 148.704 11.8947C148.704 11.9266 148.704 11.9589 148.704 11.9918V32.7214C148.691 32.8222 148.699 32.9246 148.725 33.0225C148.752 33.1204 148.798 33.2121 148.861 33.292C149.015 33.4037 149.206 33.4526 149.395 33.429H153.141C153.234 33.4551 153.331 33.4566 153.424 33.4334C153.517 33.4102 153.602 33.363 153.67 33.2966C153.74 33.2301 153.79 33.1466 153.817 33.0546C153.844 32.9625 153.846 32.8649 153.824 32.7716C153.833 31.5675 153.831 30.3795 153.828 29.1876C153.826 28.5901 153.824 27.9916 153.824 27.3895C153.824 27.3575 153.832 27.3261 153.85 27.299C153.866 27.2718 153.89 27.25 153.919 27.2363C153.948 27.2227 153.98 27.2175 154.012 27.2216C154.043 27.2257 154.073 27.2388 154.097 27.2594C155.59 28.5627 157.823 28.9233 159.739 28.3664C161.77 27.7821 163.453 26.2209 164.421 24.3333C165.388 22.4456 165.701 20.2749 165.54 18.1567ZM160.306 20.6538C159.878 22.3315 159.111 23.6211 156.808 23.7603C155.656 23.8265 153.827 23.1737 153.827 22.0987V15.6689C153.827 15.4223 153.854 15.242 154.093 15.1348C154.587 14.9065 155.914 14.7216 156.931 14.7535C161.31 14.8791 160.529 19.8253 160.317 20.6538H160.306ZM93.6154 19.0744C93.251 19.5925 93.251 19.7682 93.5924 20.2521L99.6285 28.0378C99.6639 28.0877 99.6853 28.1467 99.6894 28.208C99.6935 28.2692 99.6803 28.3305 99.6507 28.3847C99.6236 28.4398 99.5816 28.486 99.529 28.5179C99.4771 28.5498 99.4163 28.5662 99.3554 28.565H94.3845C94.3294 28.5648 94.276 28.5509 94.2274 28.5246C94.1789 28.4983 94.1378 28.4605 94.1073 28.4144L88.9094 21.6536C88.8774 21.6125 88.8329 21.5823 88.7836 21.567C88.7334 21.5517 88.6808 21.552 88.6306 21.5679C88.5812 21.5838 88.5376 21.6146 88.5064 21.656C88.4743 21.6974 88.4562 21.7475 88.4537 21.7997V28.2318C88.4537 28.3203 88.4175 28.4051 88.355 28.4675C88.2925 28.53 88.2078 28.565 88.1198 28.565H83.6318C83.5438 28.5644 83.4599 28.5291 83.3973 28.4668C83.3348 28.4044 83.3003 28.32 83.2994 28.2318V6.50233C83.2986 6.43611 83.311 6.37043 83.3365 6.30911C83.3611 6.24779 83.3982 6.19204 83.4442 6.14511C83.4911 6.09818 83.5462 6.06099 83.6071 6.03572C83.6688 6.01045 83.7338 5.9976 83.8004 5.99791H87.9536C88.0852 5.99791 88.2119 6.05056 88.3057 6.14431C88.3994 6.23805 88.4521 6.36519 88.4521 6.49777V17.9103C88.4537 17.9568 88.4694 18.0018 88.4973 18.0391C88.5253 18.0765 88.5631 18.1043 88.6076 18.1189C88.652 18.1336 88.6989 18.1344 88.7441 18.1212C88.7885 18.1079 88.828 18.0813 88.8568 18.0449C89.8579 16.6754 93.3103 11.8229 93.8638 11.0308C93.8943 10.9863 93.9346 10.95 93.9823 10.9249C94.03 10.8999 94.0827 10.8868 94.1369 10.887H98.991C99.0535 10.8854 99.1152 10.9023 99.1678 10.9356C99.2213 10.9689 99.2633 11.0171 99.2888 11.0742C99.3176 11.1298 99.3299 11.1927 99.3241 11.255C99.3176 11.3174 99.2937 11.3767 99.255 11.4257L93.6154 19.0744ZM197.789 20.2521C197.449 19.7682 197.449 19.5925 197.813 19.0744L203.462 11.4257C203.5 11.3761 203.523 11.317 203.529 11.2549C203.534 11.1929 203.524 11.1305 203.496 11.0745C203.469 11.0186 203.426 10.9715 203.373 10.9383C203.321 10.9052 203.26 10.8874 203.198 10.887H198.335C198.281 10.8867 198.228 10.8996 198.18 10.9247C198.133 10.9498 198.091 10.9862 198.062 11.0308C197.508 11.8229 194.056 16.6754 193.055 18.0449C193.026 18.0822 192.986 18.1096 192.941 18.1234C192.897 18.1372 192.848 18.1366 192.804 18.1218C192.759 18.1071 192.72 18.0788 192.692 18.041C192.664 18.003 192.648 17.9574 192.648 17.9103V6.49776C192.648 6.43212 192.634 6.36712 192.61 6.30647C192.584 6.24583 192.548 6.19072 192.501 6.1443C192.455 6.09789 192.4 6.06107 192.34 6.03595C192.279 6.01082 192.214 5.9979 192.149 5.9979H187.987C187.921 5.9979 187.856 6.01082 187.796 6.03595C187.735 6.06107 187.68 6.09789 187.634 6.1443C187.588 6.19072 187.551 6.24583 187.526 6.30647C187.501 6.36712 187.488 6.43212 187.488 6.49776V28.2272C187.488 28.3158 187.525 28.4005 187.587 28.463C187.65 28.5254 187.734 28.5604 187.822 28.5604H192.31C192.398 28.5598 192.483 28.5245 192.545 28.4621C192.607 28.3998 192.643 28.3154 192.643 28.2272V21.7997C192.647 21.7481 192.666 21.6989 192.697 21.6583C192.729 21.6176 192.772 21.5875 192.821 21.5717C192.87 21.5561 192.922 21.5554 192.972 21.57C193.021 21.5846 193.065 21.6137 193.098 21.6536L198.296 28.4144C198.327 28.4603 198.368 28.498 198.416 28.5243C198.465 28.5506 198.518 28.5645 198.573 28.565H203.546C203.608 28.5657 203.668 28.5491 203.719 28.5172C203.772 28.4853 203.814 28.4394 203.842 28.3847C203.871 28.3305 203.884 28.269 203.88 28.2075C203.876 28.1461 203.854 28.0872 203.817 28.0378L197.789 20.2521ZM117.465 24.7113L117.518 24.7235C117.601 24.7427 117.674 24.7927 117.722 24.8634C117.77 24.9341 117.789 25.0203 117.775 25.1047L117.363 28.1085C117.356 28.1836 117.323 28.254 117.27 28.3076C117.217 28.3612 117.147 28.3949 117.072 28.4029L116.993 28.4112C116.417 28.4724 114.637 28.6614 113.358 28.0514C112.752 27.7825 112.229 27.3543 111.845 26.812C111.833 26.7935 111.818 26.7776 111.8 26.7651C111.782 26.7527 111.762 26.7442 111.741 26.7399C111.72 26.7356 111.697 26.7357 111.676 26.7403C111.655 26.7448 111.635 26.7537 111.618 26.7663C110.966 27.2366 108.128 29.0671 104.926 28.4737C103.994 28.3117 103.12 27.9081 102.391 27.3028C100.004 25.2485 99.8448 20.8409 102.188 18.6452C102.777 18.1519 103.442 17.7586 104.157 17.4811C107.186 16.1641 111.305 16.3605 111.305 16.3605C111.351 15.5707 111.205 14.5618 109.244 14.3838C107.666 14.2094 104.751 14.7234 103.887 14.8758C103.812 14.8889 103.753 14.8994 103.711 14.9065C103.646 14.9185 103.579 14.9174 103.514 14.903C103.449 14.8887 103.388 14.8614 103.334 14.8229C103.28 14.7844 103.234 14.7354 103.199 14.6788C103.164 14.6222 103.141 14.5592 103.131 14.4933L102.188 11.6836C102.178 11.6187 102.179 11.5522 102.194 11.488C102.208 11.4238 102.235 11.3631 102.274 11.3095C102.312 11.2558 102.36 11.2102 102.415 11.1753C102.471 11.1404 102.533 11.1169 102.598 11.1061C103.495 10.9646 105.996 10.6062 107.079 10.4898C112.622 9.82992 114.319 11.6622 114.941 12.3334L114.942 12.3337C114.979 12.375 115.014 12.412 115.044 12.4437C116.394 13.9592 116.485 16.0956 116.472 18.0198L116.435 23.0413C116.435 24.4758 116.924 24.5875 117.465 24.7113ZM111.023 23.4704C111.194 23.2946 111.291 23.0588 111.292 22.813V19.896C111.292 19.5897 110.466 19.6799 110.262 19.7023C110.237 19.7049 110.223 19.7066 110.218 19.7066C108.825 19.896 107.837 20.1562 107.207 20.4849C106.406 20.9094 106.003 21.5509 106.003 22.4022C105.991 22.692 106.047 22.9805 106.166 23.245C106.284 23.5096 106.462 23.743 106.685 23.9269C108.369 25.1321 110.477 24.0524 111.023 23.4704ZM145.608 24.7235L145.555 24.7112C145.016 24.5874 144.527 24.4754 144.527 23.0413L144.564 18.0198C144.578 16.0956 144.485 13.9592 143.137 12.4437C143.106 12.4115 143.071 12.3739 143.032 12.3317V12.3317C142.407 11.659 140.707 9.83042 135.172 10.4898C134.089 10.6062 131.587 10.9646 130.691 11.1061C130.561 11.129 130.445 11.2026 130.368 11.3107C130.292 11.4189 130.261 11.5529 130.284 11.6836L131.225 14.4933C131.235 14.5592 131.259 14.6222 131.294 14.6788C131.329 14.7354 131.374 14.7844 131.429 14.8229C131.483 14.8614 131.544 14.8887 131.609 14.903C131.674 14.9174 131.74 14.9185 131.806 14.9065L131.844 14.8995C132.463 14.7862 135.658 14.2006 137.331 14.3792C139.293 14.5573 139.439 15.5661 139.395 16.3558C139.395 16.3558 135.274 16.1596 132.245 17.4766C131.533 17.755 130.871 18.1481 130.286 18.6407C127.944 20.8364 128.1 25.244 130.488 27.2982C131.217 27.9034 132.091 28.3071 133.024 28.4691C136.228 29.0626 139.064 27.232 139.715 26.7618C139.732 26.7492 139.752 26.7403 139.774 26.7357C139.794 26.7311 139.816 26.731 139.838 26.7353C139.859 26.7395 139.88 26.7482 139.897 26.7606C139.915 26.773 139.93 26.7889 139.942 26.8074C140.326 27.3497 140.849 27.778 141.455 28.0468C142.734 28.6567 144.513 28.4679 145.09 28.4067L145.17 28.3984C145.245 28.3904 145.314 28.3567 145.367 28.3031C145.42 28.2494 145.454 28.1791 145.461 28.1039L145.884 25.1047C145.897 25.0178 145.875 24.9292 145.824 24.8581C145.772 24.7869 145.695 24.7387 145.608 24.7235ZM139.394 22.813C139.392 23.0588 139.296 23.2946 139.125 23.4704C138.576 24.0524 136.469 25.1321 134.787 23.9269C134.563 23.7429 134.386 23.5094 134.267 23.2449C134.149 22.9804 134.093 22.692 134.105 22.4022C134.105 21.5509 134.508 20.9094 135.31 20.4849C135.941 20.1562 136.927 19.896 138.319 19.7066C138.324 19.7066 138.339 19.7049 138.363 19.7023C138.568 19.6799 139.395 19.5896 139.395 19.896L139.394 22.813ZM184.308 24.7113C184.326 24.7153 184.344 24.7194 184.361 24.7235C184.444 24.7421 184.517 24.791 184.566 24.8607C184.614 24.9303 184.636 25.0157 184.625 25.1001L184.213 28.1039C184.205 28.1791 184.173 28.2494 184.12 28.3031C184.066 28.3567 183.996 28.3904 183.922 28.3984C183.899 28.4008 183.871 28.4036 183.841 28.4069C183.261 28.4682 181.484 28.6563 180.208 28.0468C179.601 27.7785 179.078 27.3502 178.694 26.8074C178.683 26.7892 178.668 26.7735 178.65 26.7612C178.632 26.749 178.612 26.7405 178.59 26.7363C178.569 26.732 178.547 26.7321 178.526 26.7365C178.505 26.7409 178.484 26.7494 178.467 26.7618C177.816 27.232 174.978 29.0626 171.776 28.4691C170.843 28.3076 169.969 27.9039 169.241 27.2982C166.853 25.244 166.694 20.8364 169.038 18.6407C169.624 18.1481 170.286 17.755 170.997 17.4766C174.027 16.1596 178.146 16.3558 178.146 16.3558C178.189 15.5661 178.046 14.5573 176.084 14.3792C174.401 14.1999 171.186 14.7912 170.588 14.901L170.558 14.9065C170.493 14.9186 170.426 14.9174 170.361 14.9031C170.296 14.8887 170.235 14.8615 170.18 14.8231C170.126 14.7845 170.08 14.7355 170.045 14.6789C170.009 14.6223 169.986 14.5592 169.976 14.4933L169.034 11.6836C169.012 11.5527 169.044 11.4186 169.12 11.3105C169.197 11.2025 169.313 11.129 169.443 11.1061C170.338 10.9646 172.841 10.6062 173.922 10.4898C179.465 9.82992 181.162 11.6622 181.784 12.3334C181.822 12.3749 181.856 12.4119 181.887 12.4437C183.235 13.9592 183.328 16.0956 183.315 18.0198L183.278 23.0413C183.278 24.4758 183.767 24.5875 184.308 24.7113ZM177.875 23.4704C178.046 23.2946 178.142 23.0588 178.144 22.813V19.896C178.144 19.5897 177.318 19.6799 177.113 19.7023C177.089 19.7049 177.074 19.7066 177.07 19.7066C175.674 19.896 174.689 20.1562 174.059 20.4849C173.255 20.9094 172.855 21.5509 172.855 22.4022C172.843 22.692 172.899 22.9805 173.018 23.245C173.136 23.5096 173.314 23.743 173.537 23.9269C175.221 25.1321 177.327 24.0524 177.875 23.4704Z" fill="#303330"/>
</g>
<defs>
<clipPath id="clip0_169_427">
<rect width="204" height="33" fill="white" transform="translate(0 0.5)"/>
</clipPath>
</defs>
</svg>
