<svg width="203" height="32" viewBox="0 0 203 32" fill="none" xmlns="http://www.w3.org/2000/svg">
<g clip-path="url(#clip0_169_420)">
<path d="M9.04306 25.4C7.4249 22.8667 6.41355 19.4 6.41355 16.0667C6.41355 12.8 7.29005 9.66667 8.84079 7L9.04306 6.66667C10.5938 3.6 14.0324 1.53333 17.4035 1.53333C19.6285 1.53333 21.9209 2.2 23.7413 3.13333C27.0451 5.13333 29.6746 8.2 31.1579 11.8V6.33333C31.1579 5.13333 29.27 3.73333 29.27 3.73333C26.0337 1.4 22.0557 0 17.7407 0C15.9877 0 13.5604 0.466667 13.5604 0.466667C6.21128 2.06667 0.75 8.46667 0.75 16.0667C0.75 24.2 6.95294 30.9333 14.9763 31.8C14.9763 31.8 16.5945 32.0667 17.7407 32C22.3929 32 26.7079 30.4 30.0791 27.6667L30.5511 27.2C30.9556 26.6667 31.2253 26 31.2253 25.3333V20.8C31.2253 19.4667 31.8995 18.2667 32.9109 17.5333H24.2133C25.2246 18.2667 25.8989 19.4667 25.8989 20.8L25.9663 25.0667C25.9663 25.9333 25.6292 26.6667 25.0898 27.2667C24.4156 28.0667 21.7186 29.4 21.7186 29.4C20.4376 30.0667 18.9543 30.4667 17.3361 30.4667C13.6953 30.3333 10.5938 28.3333 9.04306 25.4Z" fill="#1B1B1B"/>
<path d="M96.5584 16C96.5584 23.6 102.02 29.8667 109.234 31.4C109.234 31.4 111.661 31.8667 113.414 31.8667C117.729 31.8667 121.64 30.5333 124.876 28.2C124.876 28.2 126.831 27 126.831 25.8L127.573 20C125.348 25.4667 121.572 27.5333 119.415 28.7333C117.594 29.6667 115.235 30.3333 113.077 30.3333C109.706 30.3333 106.267 28.4667 104.717 25.4L104.514 25.0667C102.964 22.4 102.087 19.3333 102.087 16C102.087 12.7333 102.964 9.6 104.514 6.93333L104.717 6.6C106.267 3.53333 109.706 1.46667 113.077 1.46667C115.302 1.46667 117.594 2.13333 119.415 3.06667C122.719 5.06667 125.348 8.13333 126.831 11.7333V6.26667C126.831 5.06667 124.944 3.66667 124.944 3.66667C121.707 1.33333 117.729 0 113.414 0C111.661 0 109.234 0.466667 109.234 0.466667C101.952 1.93333 96.5584 8.33333 96.5584 16Z" fill="#1B1B1B"/>
<path d="M146.519 16C146.519 23.6 151.98 29.8667 159.195 31.4C159.195 31.4 161.622 31.8667 163.375 31.8667C167.69 31.8667 171.6 30.5333 174.837 28.2C174.837 28.2 176.792 27 176.792 25.7333L177.534 19.9333C175.309 25.4 171.533 27.4667 169.376 28.6667C167.555 29.6 165.195 30.2667 163.038 30.2667C159.667 30.2667 156.228 28.3333 154.677 25.3333L154.475 25C152.924 22.3333 152.048 19.2667 152.048 15.9333C152.048 12.6667 152.924 9.53333 154.475 6.86667L154.677 6.53333C156.228 3.46667 159.667 1.4 163.038 1.4C165.263 1.4 167.555 2.06667 169.376 3C172.679 5 175.309 8.06667 176.792 11.6667V6.33333C176.792 5.13333 174.904 3.73333 174.904 3.73333C171.735 1.4 167.757 0 163.442 0C161.689 0 159.262 0.466667 159.262 0.466667C151.98 2 146.519 8.4 146.519 16Z" fill="#1B1B1B"/>
<path d="M202.75 1.39999H194.39C195.401 2.13333 196.075 3.26666 196.075 4.59999V28.6667C196.075 29.9333 195.468 31.1333 194.457 31.8H202.615C201.671 31.0667 200.997 29.9333 200.997 28.6667V4.59999C201.064 3.26666 201.671 2.06666 202.75 1.39999Z" fill="#1B1B1B"/>
<path d="M58.3294 1.39999H49.969C50.9803 2.13333 51.6545 3.33333 51.6545 4.66666V22.6667C51.9242 25.9333 54.0144 28.7333 56.9136 30.0667C59.2734 31.2 61.9029 31.8667 64.7346 31.8667C67.5664 31.8667 70.3308 31.2667 72.6906 30.0667H72.758C75.6572 28.7333 77.7473 25.9333 78.017 22.6667V4.53333C78.017 3.19999 78.6913 2.06666 79.7026 1.39999H74.8481C75.8595 2.13333 76.5337 3.19999 76.5337 4.53333V22.6667V22.7333C76.3314 24.7333 75.3201 26.4667 73.9042 27.6667L73.8368 27.7333C72.2186 29 69.3194 29.9333 66.5551 29.9333C64.8695 29.9333 63.2513 29.6 61.7006 29L61.5658 28.9333C58.8688 28 56.9136 25.5333 56.5764 22.6V22.5333V4.66666C56.5764 3.26666 57.3181 2.06666 58.3294 1.39999Z" fill="#1B1B1B"/>
</g>
<defs>
<clipPath id="clip0_169_420">
<rect width="202" height="32" fill="white" transform="translate(0.75)"/>
</clipPath>
</defs>
</svg>
