<svg width="203" height="46" viewBox="0 0 203 46" fill="none" xmlns="http://www.w3.org/2000/svg">
<g clip-path="url(#clip0_169_418)">
<path d="M101.034 28.52C101.034 23.2044 105.383 18.9111 110.767 18.9111C116.15 18.9111 120.499 23.2044 120.499 28.52C120.499 33.8356 116.15 38.1289 110.767 38.1289C105.383 38.1289 101.034 33.9378 101.034 28.52ZM140.792 28.52C140.792 23.2044 145.141 18.9111 150.525 18.9111C155.908 18.9111 160.257 23.2044 160.257 28.52C160.257 33.8356 155.908 38.1289 150.525 38.1289C145.141 38.2311 140.792 33.9378 140.792 28.52ZM48.541 28.52C48.541 23.2044 52.8895 18.9111 58.2734 18.9111C63.6573 18.9111 68.0059 23.2044 68.0059 28.52C68.0059 33.8356 63.6573 38.1289 58.2734 38.1289C52.8895 38.2311 48.541 33.9378 48.541 28.52ZM8.78293 28.52C8.78293 23.2044 13.1315 18.9111 18.5154 18.9111C23.8993 18.9111 28.2478 23.2044 28.2478 28.52C28.2478 33.8356 23.8993 38.1289 18.5154 38.1289C13.1315 38.2311 8.78293 33.9378 8.78293 28.52ZM89.2309 11.4489H80.7409V45.1822H89.2309V11.4489ZM28.2478 45.2844H36.7378V11.5511H28.2478V14.3111C25.3488 12.3689 21.9321 11.2444 18.1012 11.2444C8.36879 11.1422 0.5 18.9111 0.5 28.52C0.5 38.2311 8.36879 46 18.2048 46C21.9321 46 25.4523 44.8756 28.3514 42.9333V45.2844H28.2478ZM160.257 45.2844H168.747V11.5511H160.257V14.3111C157.358 12.3689 153.941 11.2444 150.11 11.2444C140.378 11.2444 132.406 19.0133 132.406 28.7244C132.406 38.4356 140.274 46.2044 150.11 46.2044C153.838 46.2044 157.358 45.08 160.257 43.1378V45.2844ZM171.853 34.3467C172.164 41.1956 177.962 46 187.901 46C195.977 46 202.604 42.5244 202.604 34.96C202.604 29.6444 199.601 26.5778 192.664 25.2489L187.28 24.2267C183.76 23.6133 181.379 22.8978 181.379 20.8533C181.379 18.6044 183.76 17.5822 186.659 17.5822C190.904 17.5822 192.664 19.7289 192.768 22.1822H201.361C200.843 15.5378 195.563 11.1422 186.866 11.1422C177.962 11.1422 172.681 15.9467 172.681 22.2844C172.681 29.9511 178.997 31.1778 184.381 32.2L188.833 33.0178C192.043 33.6311 193.492 34.5511 193.492 36.3911C193.492 38.0267 191.836 39.6622 188.108 39.6622C182.517 39.6622 180.757 36.8 180.654 34.3467H171.853ZM68.0059 0V14.2089C65.1069 12.2667 61.6902 11.1422 57.8593 11.1422C48.1269 11.1422 40.1545 18.9111 40.1545 28.6222C40.2581 38.2311 48.1269 46 57.9628 46C61.6902 46 65.2104 44.8756 68.1094 42.9333V45.2844H76.5994V0H68.0059ZM120.499 0V14.2089C117.6 12.2667 114.183 11.1422 110.352 11.1422C100.62 11.1422 92.6476 18.9111 92.6476 28.6222C92.6476 38.3333 100.516 46.1022 110.352 46.1022C114.08 46.1022 117.6 44.9778 120.499 43.0356V45.3867H128.989V0H120.499ZM80.7409 0V8.38222H89.2309V0" fill="#101913"/>
</g>
<defs>
<clipPath id="clip0_169_418">
<rect width="202" height="46" fill="white" transform="translate(0.5)"/>
</clipPath>
</defs>
</svg>
