<svg width="208" height="26" viewBox="0 0 208 26" fill="none" xmlns="http://www.w3.org/2000/svg">
<g clip-path="url(#clip0_169_416)">
<path d="M196.916 4.4824H197.057C197.38 6.1256 197.521 6.8744 197.849 8.06693L199.758 16.1373H194.17L196.078 8.06693C196.358 6.8744 196.544 6.1256 196.915 4.4824M201.988 25.6516H207.25L200.642 0.494H193.472L186.815 25.6533H191.796L193.284 20.0235H200.5L201.988 25.6516ZM175.409 25.9983C178.296 25.9983 181.089 25.2529 182.906 24.4556V11.856H174.804V15.8895H178.112V21.5159C177.505 21.9145 176.478 22.1659 175.366 22.1659C171.921 22.1659 170.849 20.3233 170.849 14.9951V11.752C170.849 6.474 171.871 3.88267 175.037 3.88267C177.225 3.88267 177.974 5.47733 178.023 7.17253H183.004C182.949 2.73867 179.973 0 175.036 0C168.143 0 165.633 4.28133 165.633 11.2095V14.8963C165.585 22.4155 167.962 26 175.408 26M152.091 4.4824H152.233C152.557 6.1256 152.699 6.8744 153.022 8.06693L154.934 16.1373H149.347L151.255 8.06693C151.533 6.8744 151.719 6.1256 152.091 4.4824ZM157.166 25.6533H162.422L155.817 0.494H148.643L141.993 25.6533H146.974L148.462 20.0235H155.675L157.166 25.6516V25.6533ZM132.027 25.6533H137.007V0.494H132.027V25.6533ZM118.342 26C123.879 26 126.58 23.2579 126.719 18.1341H121.694C121.601 20.6232 120.853 22.1659 118.483 22.1659C115.785 22.1659 114.763 20.1257 114.763 14.8963V11.2095C114.763 5.928 115.785 3.93813 118.483 3.93813C120.999 3.93813 121.416 5.73213 121.507 7.62493H126.533C126.484 3.24133 124.159 0.104 118.344 0.104C111.872 0.104 109.501 4.43733 109.501 11.2095V14.8963C109.501 21.7187 111.87 26 118.342 26ZM84.6397 25.6533H89.0643V11.0587C89.0643 9.0168 88.9673 6.526 88.8735 4.4824H89.019C89.7144 7.072 90.0864 8.41707 90.7381 10.3584L95.9066 25.6533H103.168V0.494H98.7448V14.4959C98.7448 16.3332 98.7933 18.7772 98.8386 21.1172H98.6995C98.3276 19.3717 97.9977 17.628 97.0209 14.7905L92.1806 0.495733H84.596V25.6533H84.6397ZM64.344 25.6533H77.8895V21.6147H69.3249V14.6415H77.0955V10.5612H69.3233V4.4824H77.5629V0.4472H64.3391V25.6499L64.344 25.6533ZM46.1458 25.6533H59.1803V21.6147H51.1267V0.495733H46.1458V25.6533ZM30.6919 4.48067H30.8326C31.1561 6.12387 31.3016 6.87267 31.6251 8.0652L33.5333 16.1356H27.9492L29.8575 8.0652C30.1356 6.87267 30.3232 6.12387 30.6936 4.48067M35.7667 25.6533H41.0274L34.4163 0.494H27.2489L20.591 25.6533H25.5719L27.0597 20.0235H34.2772L35.7683 25.6516L35.7667 25.6533ZM5.27622 21.8157V14.4976H8.30359C10.8636 14.4976 12.0716 15.7421 12.0716 18.1792C12.0716 20.8659 10.49 21.8677 8.2098 21.8677H5.27622V21.8157ZM5.27622 10.6583V4.33333H8.39739C10.6744 4.33333 11.6528 5.42533 11.6528 7.47067C11.6528 9.516 10.5418 10.66 8.44429 10.66H5.27622V10.6583ZM0.295281 25.6533H9.09278C14.0252 25.6533 17.0493 23.7553 17.0493 18.5293C17.0493 15.1909 15.2381 12.9029 11.884 12.5493V12.4037C14.8597 11.856 16.6321 10.1123 16.6321 6.7756C16.6321 2.4388 14.3034 0.497467 9.32566 0.497467H0.25V25.6533H0.295281Z" fill="#101913"/>
</g>
<defs>
<clipPath id="clip0_169_416">
<rect width="207" height="26" fill="white" transform="translate(0.25)"/>
</clipPath>
</defs>
</svg>
